<svg xmlns="http://www.w3.org/2000/svg" viewBox="0 0 64 64" role="img" aria-label="GitHub">
  <rect width="64" height="64" rx="10" fill="#245f3e"/>
  <path d="M32 10c-12 0-22 10-22 22 0 9 6 17 14 20 1 .2 1.4-.4 1.4-1v-4.2c-5.6 1.2-6.8-2.4-6.8-2.4-.9-2.3-2.2-2.9-2.2-2.9-1.8-1.2.1-1.2.1-1.2 2 .1 3.1 2.1 3.1 2.1 1.8 3.1 4.7 2.2 5.8 1.7.2-1.3.7-2.2 1.3-2.7-4.5-.5-9.2-2.2-9.2-9.9 0-2.2.8-4 2.1-5.4-.2-.5-.9-2.6.2-5.3 0 0 1.7-.5 5.6 2.1a19.6 19.6 0 0 1 10.2 0c3.9-2.6 5.6-2.1 5.6-2.1 1.1 2.7.4 4.8.2 5.3 1.3 1.4 2.1 3.2 2.1 5.4 0 7.7-4.7 9.4-9.2 9.9.7.6 1.4 1.9 1.4 3.9V51c0 .6.4 1.2 1.4 1A22 22 0 0 0 54 32c0-12-10-22-22-22z" fill="#ffffff"/>
</svg>
